<?xml version="1.0" encoding="utf-8"?>
<!-- Generator: Adobe Illustrator 21.1.0, SVG Export Plug-In . SVG Version: 6.00 Build 0)  -->
<svg version="1.1" id="Layer_1" xmlns="http://www.w3.org/2000/svg" xmlns:xlink="http://www.w3.org/1999/xlink" x="0px" y="0px"
	 viewBox="0 0 170 25" style="enable-background:new 0 0 170 25;" xml:space="preserve">
<g>
	<path d="M2.7,20.6v-16c0-2,0.7-2.8,2.7-2.8h7.3c2,0,2.7,0.7,2.7,2.8v5.3h-5V3.7H7.6v17.8h7.8v1.9h-10C3.3,23.3,2.7,22.6,2.7,20.6z"
		/>
	<path d="M31.1,4.6v16c0,2-0.7,2.8-2.7,2.8h-8c-2,0-2.7-0.7-2.7-2.8v-16c0-2,0.7-2.8,2.7-2.8h8C30.4,1.8,31.1,2.5,31.1,4.6z
		 M26.1,3.7h-3.5v17.8h3.5V3.7z"/>
	<path d="M53.1,23.3h-5V8.1l-3.5,9.4h-2.4l-3.5-9.4v15.2h-5V1.8h5l4.7,12.9l4.7-12.9h5V23.3z"/>
	<path d="M56,23.3V1.8h5v21.5H56z"/>
	<path d="M78.4,1.8v21.5h-5L68.9,8.3v15.1h-5V1.8h5l4.6,15v-15H78.4z"/>
	<path d="M89.6,7.4V3.7h-3.5v17.8h3.5v-8.3h-2.2v-1.9h7.2v9.3c0,2-0.7,2.8-2.7,2.8h-8c-2,0-2.7-0.7-2.7-2.8v-16c0-2,0.7-2.8,2.7-2.8
		h8c2,0,2.7,0.7,2.7,2.8v2.8H89.6z"/>
	<path d="M114.5,23.3h-7.4c-2,0-2.8-0.6-2.8-2.4v-3.6h4.8v4.2h3.3v-7.9h-5.4c-2,0-2.8-0.6-2.8-2.4V4.2c0-1.8,0.8-2.4,2.8-2.4h7.4
		c2,0,2.8,0.6,2.8,2.4v3.6h-4.8V3.7h-3.3v8h5.4c2,0,2.8,0.6,2.8,2.4v6.7C117.3,22.7,116.5,23.3,114.5,23.3z"/>
	<path d="M133.3,4.6v16c0,2-0.7,2.8-2.7,2.8h-8c-2,0-2.7-0.7-2.7-2.8v-16c0-2,0.7-2.8,2.7-2.8h8C132.6,1.8,133.3,2.5,133.3,4.6z
		 M128.3,3.7h-3.5v17.8h3.5V3.7z"/>
	<path d="M149.3,4.6v16c0,2-0.7,2.8-2.7,2.8h-8c-2,0-2.7-0.7-2.7-2.8v-16c0-2,0.7-2.8,2.7-2.8h8C148.6,1.8,149.3,2.5,149.3,4.6z
		 M144.3,3.7h-3.5v17.8h3.5V3.7z"/>
	<path d="M166.6,1.8v21.5h-5L157,8.3v15.1h-5V1.8h5l4.6,15v-15H166.6z"/>
</g>
</svg>
