<?xml version="1.0" encoding="utf-8"?>
<!-- Generator: Adobe Illustrator 21.1.0, SVG Export Plug-In . SVG Version: 6.00 Build 0)  -->
<svg version="1.1" id="Layer_1" xmlns="http://www.w3.org/2000/svg" xmlns:xlink="http://www.w3.org/1999/xlink" x="0px" y="0px"
	 viewBox="0 0 610 85" style="enable-background:new 0 0 610 85;" xml:space="preserve">
<path d="M361.4,57.2V3.6h-8.7v58.7h22.9v-5.1H361.4z M598.1,81.8h-14.4c-5.5,0-7.5-1.7-7.5-6.6v-6h8.7v7.5h12V62.2h-13.3
	c-5.6,0-7.4-2-7.4-7.5V24c0-5,2.1-6.6,7.5-6.6h21.9v57.9C605.6,80.2,603.6,81.8,598.1,81.8z M596.9,57.1V22.4h-12v34.7H596.9z
	 M532.3,11.4V2.7h-8.7v8.7H532.3z M560.8,62.3V22.5h-12v39.8H540V17.4h21.9c5.5,0,7.5,1.7,7.5,6.6v38.2H560.8z M532.3,62.3V17.4
	h-8.7v44.9H532.3z M509.7,37.8V22.5h-9.1v39.8h-8.7V17.4h18.5c5.5,0,7.5,1.7,7.5,6.6v13.8H509.7z M453.2,22.5v-5.1h-8.5V7.8H436
	v47.8c0,5,2.1,6.6,7.5,6.6h9.7v-5.1h-8.5V22.5H453.2z M431.7,22.5v-5.1h-8.5V7.8h-8.7v47.8c0,5,2.1,6.6,7.5,6.6h9.7v-5.1h-8.5V22.5
	H431.7z M477.4,22.5h-10.1v20.6h10.1V22.5z M467.3,48.2v9h17.8v5.1h-19c-5.5,0-7.5-1.7-7.5-6.6V24.9c0-5.6,1.9-7.5,7.4-7.5h12.6
	c5.6,0,7.4,2,7.4,7.5v23.3H467.3z M400.1,22.5h-10.1v20.6h10.1V22.5z M390.1,48.2v9h17.8v5.1h-19c-5.5,0-7.5-1.7-7.5-6.6V24.9
	c0-5.6,1.9-7.5,7.4-7.5h12.6c5.6,0,7.4,2,7.4,7.5v23.3H390.1z M336.2,22.5v-5.1h-8.5V7.8H319v47.8c0,5,2.1,6.6,7.5,6.6h9.7v-5.1
	h-8.5V22.5H336.2z M303.9,22.5h-10.1v20.6h10.1V22.5z M293.8,48.2v9h17.8v5.1h-19c-5.5,0-7.5-1.7-7.5-6.6V24.9
	c0-5.6,1.9-7.5,7.4-7.5h12.6c5.6,0,7.4,2,7.4,7.5v23.3H293.8z M270,22.5H260v20.6H270V22.5z M260,48.2v9h17.8v5.1h-19
	c-5.5,0-7.5-1.7-7.5-6.6V24.9c0-5.6,1.9-7.5,7.4-7.5h12.6c5.6,0,7.4,2,7.4,7.5v23.3H260z M213.3,22.5v-5.1h-8.5V7.8h-8.7v47.8
	c0,5,2.1,6.6,7.5,6.6h9.7v-5.1h-8.5V22.5H213.3z M130.7,57.2h-10.1V38.5h10.1V57.2z M131.9,17.4h-18v5.1h16.8v10.9h-11.3
	c-5.6,0-7.4,2-7.4,7.5v13.8c0,5.6,1.9,7.5,7.4,7.5h20V24C139.4,19.1,137.4,17.4,131.9,17.4z M189.4,55.6V37.2c0-5-2.1-6.6-7.5-6.6
	h-15.2V8.7h14.5v10.5h8.2v-8.9c0-5-2.1-6.6-7.5-6.6H166c-5.5,0-7.5,1.7-7.5,6.6V29c0,5,2.1,6.6,7.5,6.6h15.2v21.5h-14.5V46.7h-8.2
	v8.9c0,5,2.1,6.6,7.5,6.6h15.8C187.3,62.3,189.4,60.6,189.4,55.6z M237,37.8V22.5h-9.1v39.8h-8.7V17.4h18.5c5.5,0,7.5,1.7,7.5,6.6
	v13.8H237z M104.9,11.4V2.7h-8.7v8.7H104.9z M14.3,62.3V3.6H5.6v58.7H14.3z M42.9,62.3V22.5h-12v39.8h-8.7V17.4H44
	c5.5,0,7.5,1.7,7.5,6.6v38.2H42.9z M104.9,62.3V17.4h-8.7v44.9H104.9z M88.6,3.6v58.7H66.4c-5.5,0-7.5-1.7-7.5-6.6V24.9
	c0-5.6,1.9-7.5,7.4-7.5h13.6V3.6H88.6z M79.9,22.5H67.6v34.7h12.3V22.5z"/>
</svg>
