<?xml version="1.0" encoding="utf-8"?>
<!-- Generator: Adobe Illustrator 21.1.0, SVG Export Plug-In . SVG Version: 6.00 Build 0)  -->
<svg version="1.1" id="Layer_1" xmlns="http://www.w3.org/2000/svg" xmlns:xlink="http://www.w3.org/1999/xlink" x="0px" y="0px"
	 viewBox="0 0 310 45" style="enable-background:new 0 0 310 45;" xml:space="preserve">
<path d="M182.5,29.7V2.9h-4.3v29.3h11.4v-2.5H182.5z M300.9,42.1h-7.2c-2.7,0-3.8-0.8-3.8-3.3v-3h4.3v3.8h6v-7.3h-6.6
	c-2.8,0-3.7-1-3.7-3.8V13.1c0-2.5,1-3.3,3.8-3.3h10.9v28.9C304.6,41.2,303.6,42.1,300.9,42.1z M300.3,29.7V12.3h-6v17.4H300.3z
	 M268,6.9V2.5h-4.3v4.3H268z M282.2,32.3V12.4h-6v19.9h-4.3V9.8h10.9c2.7,0,3.8,0.8,3.8,3.3v19.1H282.2z M268,32.3V9.8h-4.3v22.4
	H268z M256.7,20.1v-7.7h-4.5v19.9h-4.3V9.8h9.2c2.7,0,3.8,0.8,3.8,3.3v6.9H256.7z M228.4,12.4V9.8h-4.3V5.1h-4.3V29
	c0,2.5,1,3.3,3.8,3.3h4.8v-2.5h-4.3V12.4H228.4z M217.7,12.4V9.8h-4.3V5.1h-4.3V29c0,2.5,1,3.3,3.8,3.3h4.8v-2.5h-4.3V12.4H217.7z
	 M240.5,12.4h-5v10.3h5V12.4z M235.5,25.2v4.5h8.9v2.5h-9.5c-2.7,0-3.8-0.8-3.8-3.3V13.6c0-2.8,0.9-3.8,3.7-3.8h6.3
	c2.8,0,3.7,1,3.7,3.8v11.6H235.5z M201.9,12.4h-5v10.3h5V12.4z M196.8,25.2v4.5h8.9v2.5h-9.5c-2.7,0-3.8-0.8-3.8-3.3V13.6
	c0-2.8,0.9-3.8,3.7-3.8h6.3c2.8,0,3.7,1,3.7,3.8v11.6H196.8z M169.9,12.4V9.8h-4.3V5.1h-4.3V29c0,2.5,1,3.3,3.8,3.3h4.8v-2.5h-4.3
	V12.4H169.9z M153.7,12.4h-5v10.3h5V12.4z M148.7,25.2v4.5h8.9v2.5h-9.5c-2.7,0-3.8-0.8-3.8-3.3V13.6c0-2.8,0.9-3.8,3.7-3.8h6.3
	c2.8,0,3.7,1,3.7,3.8v11.6H148.7z M136.8,12.4h-5v10.3h5V12.4z M131.8,25.2v4.5h8.9v2.5h-9.5c-2.7,0-3.8-0.8-3.8-3.3V13.6
	c0-2.8,0.9-3.8,3.7-3.8h6.3c2.8,0,3.7,1,3.7,3.8v11.6H131.8z M108.5,12.4V9.8h-4.3V5.1h-4.3V29c0,2.5,1,3.3,3.8,3.3h4.8v-2.5h-4.3
	V12.4H108.5z M67.2,29.7h-5v-9.3h5V29.7z M67.8,9.8h-9v2.5h8.4v5.5h-5.7c-2.8,0-3.7,1-3.7,3.8v6.9c0,2.8,0.9,3.8,3.7,3.8h10V13.2
	C71.5,10.7,70.5,9.8,67.8,9.8z M96.5,29v-9.2c0-2.5-1-3.3-3.8-3.3h-7.6V5.5h7.2v5.2h4.1V6.3c0-2.5-1-3.3-3.8-3.3h-7.9
	c-2.7,0-3.8,0.8-3.8,3.3v9.4c0,2.5,1,3.3,3.8,3.3h7.6v10.8h-7.2v-5.2h-4.1V29c0,2.5,1,3.3,3.8,3.3h7.9C95.5,32.3,96.5,31.4,96.5,29z
	 M120.3,20.1v-7.7h-4.5v19.9h-4.3V9.8h9.2c2.7,0,3.8,0.8,3.8,3.3v6.9H120.3z M54.3,6.9V2.5h-4.3v4.3H54.3z M9,32.3V2.9H4.6v29.3H9z
	 M23.2,32.3V12.4h-6v19.9h-4.3V9.8h10.9c2.7,0,3.8,0.8,3.8,3.3v19.1H23.2z M54.3,32.3V9.8h-4.3v22.4H54.3z M46.1,2.9v29.3H35
	c-2.7,0-3.8-0.8-3.8-3.3V13.6c0-2.8,0.9-3.8,3.7-3.8h6.8V2.9H46.1z M41.8,12.4h-6.2v17.4h6.2V12.4z"/>
</svg>
